# xmcd
#
# Track frame offsets:
#   150
#   20369
#   37285
#   61366
#   84179
#   102533
#   122496
#   141746
#   164816
#   187547
#   210601
#
# Disc length: 3064 seconds
#
# Revision: 0
# Processed by: cddbd v1.5.1PL0 Copyright (c) Steve Scherf et al.
# Submitted via: uFREEDB 1.6.0
#
DISCID=9b0bf60b
DTITLE=Jimmy Thackery and the Drivers - Sinner street
DYEAR=2000
DGENRE=Blues
TTITLE0=Grab The Rafters
TTITLE1=Bad News
TTITLE2=Sinner Street
TTITLE3=Lovin' My Money
TTITLE4=Chained To The Blues
TTITLE5=Detroit Iron
TTITLE6=Hundreds Into Ones
TTITLE7=Never Enough
TTITLE8=Million Dollar Bill
TTITLE9=Havin' A Heart
TTITLE10=Blues Before Dawn
EXTD=
EXTT0=
EXTT1=
EXTT2=
EXTT3=
EXTT4=
EXTT5=
EXTT6=
EXTT7=
EXTT8=
EXTT9=
EXTT10=
PLAYORDER=
